<?xml version="1.0" encoding="UTF-8" standalone="no"?>
<svg
   version="1.1"
   id="svg1"
   width="1024"
   height="1024"
   viewBox="0 0 1024 1024"
   xmlns="http://www.w3.org/2000/svg"
   xmlns:svg="http://www.w3.org/2000/svg"
   xmlns:inkscape="http://www.inkscape.org/namespaces/inkscape">
  <defs id="defs1">
    <linearGradient id="bgGradient" x1="0%" y1="0%" x2="100%" y2="100%">
      <stop offset="0%" stop-color="#ff00ff" />
      <stop offset="100%" stop-color="#8000ff" />
    </linearGradient>
  </defs>
  <g
     inkscape:groupmode="layer"
     inkscape:label="Image"
     id="g1">
    <path
       fill="none"
       stroke="url(#bgGradient)"
       stroke-width="20"
       d="M -49.733517,517.10087 V -20.403487 H 490.95888 1031.6514 V 517.10087 1054.6052 H 490.95888 -49.733517 Z M 848.95637,915.94331 c 13.72672,-2.87406 26.57165,-13.33517 33.0382,-26.90664 l 3.39517,-7.12571 0.27077,-321.68485 0.27077,-321.68487 -2.30322,-4.80704 C 880.23627,226.65557 773.8487,120.97916 767.43548,118.31832 c -4.34223,-1.80157 -18.81673,-1.88254 -322.41433,-1.80372 l -317.86801,0.0825 -6.03843,2.81356 c -11.81561,5.50529 -21.278246,17.37901 -23.943906,30.04477 -1.64193,7.8017 -1.66759,721.49224 -0.0264,730.42551 2.62088,14.26449 12.483656,27.60394 24.885366,33.65751 l 6.17931,3.01633 56.49814,0.5249 c 31.07397,0.2887 191.93524,0.42475 357.46949,0.30232 223.28165,-0.16513 302.47059,-0.5365 306.77955,-1.43871 z M 136.65751,886.19697 c -4.15372,-1.8431 -8.39352,-6.5567 -9.88264,-10.98681 -0.8782,-2.61274 -1.19512,-98.06064 -1.19892,-361.13574 0,-338.42621 0.094,-357.77738 1.84205,-361.18668 3.61493,-7.04954 3.76584,-7.06753 55.44126,-6.60823 l 46.20174,0.41066 0.132,90.72216 c 0.0729,49.89719 0.2147,91.07648 0.31576,91.50953 0.10138,0.43304 0.56097,3.13087 1.02204,5.99516 3.23021,20.06393 17.88583,36.73625 38.52739,43.82893 l 6.99658,2.40411 h 182.16688 182.16687 l 6.02534,-2.20568 c 20.85013,-7.63254 36.67265,-26.08383 40.45232,-47.17295 1.21339,-6.77061 1.50549,-25.18587 1.53528,-96.80786 l 0.037,-88.44676 34.5853,0.002 34.58531,0.002 49.10585,48.76212 49.10585,48.76214 0.52802,314.20855 c 0.48399,288.00208 0.38535,314.5588 -1.18319,318.40781 -2.0127,4.93924 -4.33155,7.20088 -9.64597,9.40828 -3.18649,1.32385 -9.25703,1.61502 -33.66507,1.61502 h -29.77758 l 0.71938,-206.15871 c 0.52759,-151.19839 0.40245,-207.6626 -0.46931,-211.79982 -2.62911,-12.47808 -13.25583,-27.40163 -23.04838,-32.36793 -10.80804,-5.48139 -1.27422,-5.29387 -268.14846,-5.27424 -268.44966,0.0197 -255.41781,-0.25471 -267.08969,5.62501 -6.64165,3.34573 -16.27452,13.82321 -20.36203,22.14728 -1.74067,3.54471 -3.56794,9.56091 -4.15415,13.6771 -0.66171,4.6465 -1.05414,82.14168 -1.06744,210.75001 l -0.0211,203.4013 -29.30511,-0.041 c -22.12826,-0.0311 -30.08098,-0.38537 -32.47322,-1.44688 z m 93.45953,-17.9162 v -19.40834 l 138.60523,-0.27774 c 76.23287,-0.15277 193.73051,-0.0416 261.10585,0.24716 l 122.5006,0.5249 -0.18998,18.89664 -0.18998,18.89664 -260.91585,0.26454 -260.91587,0.26454 z m 0,-220.40981 c 0,-119.72416 0.34522,-173.5316 1.12637,-175.58126 1.52556,-4.00246 4.8939,-7.43228 9.96205,-10.14373 l 4.22416,-2.25992 245.79559,-0.28265 c 242.9787,-0.27941 245.84236,-0.25888 249.88457,1.79114 5.17755,2.62584 9.37742,7.55182 10.15234,11.90754 0.33086,1.85954 0.70618,80.73914 0.83406,175.28799 l 0.23254,171.90701 -261.10583,-10e-5 -261.10585,-9e-5 z m 308.68647,122.82771 c 21.28078,-1.98833 49.18135,-22.64827 57.39734,-42.50186 2.20079,-5.31808 2.42626,-7.5181 2.44907,-23.89175 0.0211,-15.0181 -0.2525,-18.3102 -1.63444,-19.68399 -1.4077,-1.39943 -5.1728,-1.64971 -24.81693,-1.64971 -28.19373,0 -27.38164,-0.36899 -27.38164,12.4411 0,9.3579 -1.13925,13.46667 -5.50313,19.84743 -5.76745,8.43304 -6.86806,8.65418 -43.0747,8.65418 -29.14691,0 -32.0883,-0.16465 -35.68338,-1.99745 -4.54054,-2.31481 -7.72049,-5.5434 -10.1308,-10.28572 -1.52112,-2.99296 -1.70508,-10.78657 -1.68438,-71.3873 0.0222,-66.07562 0.0845,-68.16223 2.1652,-72.72184 1.17812,-2.58187 3.33075,-6.24358 4.78354,-8.13715 5.00764,-6.5266 5.40798,-6.59009 41.55042,-6.59009 h 32.78666 l 4.16671,3.74223 c 6.35377,5.70642 9.56782,12.9998 9.56782,21.71154 0,8.46616 2.03922,13.37631 5.57135,13.41515 20.47545,0.22509 41.9251,-0.082 43.33671,-0.62055 2.68656,-1.02485 3.01985,-3.80301 2.64876,-22.08171 -0.31671,-15.60029 -0.52665,-17.0899 -3.21047,-22.78423 -7.10757,-15.08023 -24.45609,-29.79994 -41.99395,-35.63068 -6.49824,-2.16045 -9.12925,-2.3081 -47.37395,-2.65857 -55.3745,-0.50744 -63.55417,0.68946 -80.28712,11.7479 -12.97672,8.57603 -25.04715,23.01746 -28.17313,33.70711 -1.37296,4.69497 -1.55354,16.74333 -1.29925,86.69977 l 0.29537,81.24706 3.87345,7.87484 c 7.43801,15.12153 22.26787,29.45026 37.9527,36.66997 11.67125,5.37233 16.84732,5.86639 59.10518,5.64169 21.15628,-0.11249 41.22494,-0.46231 44.59699,-0.77737 z M 277.51749,349.78204 c -5.77094,-2.05015 -10.14696,-5.55585 -13.02012,-10.43066 -5.62584,-9.54514 -5.63324,-9.66803 -5.88003,-97.8972 -0.12588,-44.99808 -0.17457,-84.7673 -0.10804,-88.37604 l 0.12081,-6.56133 199.85555,-1.2e-4 199.85554,-1.4e-4 -0.25335,91.07143 c -0.28365,101.9179 0.15133,96.16563 -7.93001,104.8811 -2.68931,2.90042 -6.18903,5.23986 -9.90745,6.6229 -5.70177,2.12072 -7.21022,2.13803 -182.33236,2.09233 -141.54925,-0.0369 -177.34045,-0.31514 -180.40054,-1.40227 z m 335.41399,-29.93061 c 2.32329,-1.06595 5.41221,-3.21918 6.86426,-4.78497 l 2.6401,-2.84687 0.52802,-62.00639 c 0.38609,-45.34201 0.20234,-62.77572 -0.68368,-64.869 -1.3456,-3.17884 -6.86922,-7.7013 -10.93276,-8.95115 -1.45205,-0.44661 -17.08112,-0.737 -34.73135,-0.6453 -31.1347,0.16176 -32.21946,0.2371 -36.39251,2.52736 -2.36563,1.29835 -5.38886,3.96585 -6.71821,5.92777 l -2.41696,3.56715 v 61.02523 c 0,55.77788 0.15482,61.24842 1.7996,63.6209 2.41622,3.48506 4.27897,4.95983 9.28882,7.35436 3.87398,1.85158 6.80734,2.01899 35.37734,2.01899 28.05813,0 31.57284,-0.19255 35.37733,-1.93808 z"
       id="path1" />
  </g>
</svg>
